        <svg
                xmlns="http://www.w3.org/2000/svg"
                width="126"
                height="126"
                fill="none"
              >
                <mask
                  id="a"
                  width="92"
                  height="92"
                  x="17"
                  y="17"
                  maskUnits="userSpaceOnUse"
                  style="mask-type: alpha"
                >
                  <path
                    fill="#fff"
                    fill-rule="evenodd"
                    d="M17.168 17.168h91.481v91.436H17.168V17.168z"
                    clip-rule="evenodd"
                  />
                </mask>
                <g mask="url(#a)">
                  <path
                    fill="#D4D4D4"
                    fill-rule="evenodd"
                    d="M43.064 24.041c-11.555 0-19.021 7.916-19.021 20.163v37.363c0 12.251 7.466 20.162 19.02 20.162H82.71c11.582 0 19.066-7.91 19.066-20.162V44.204c0-12.247-7.484-20.162-19.066-20.162H43.064zm39.646 84.563H43.064c-15.492 0-25.896-10.867-25.896-27.037V44.204c0-16.17 10.404-27.037 25.896-27.037H82.71c15.514 0 25.941 10.867 25.941 27.037v37.363c0 16.17-10.427 27.037-25.941 27.037z"
                    clip-rule="evenodd"
                  />
                </g>
                <path
                  fill="#D4D4D4"
                  fill-rule="evenodd"
                  d="M32.205 86.743c-.852 0-1.7-.311-2.365-.944a3.429 3.429 0 0 1-.128-4.853l7.003-7.393c3.708-3.937 9.964-4.13 13.92-.417l4.39 4.455c1.224 1.237 3.213 1.26 4.442.05.463-.545 10.445-12.668 10.445-12.668a11.123 11.123 0 0 1 7.549-4.015c2.98-.262 5.871.605 8.177 2.498.197.16.375.316 10.44 10.651a3.433 3.433 0 0 1-.06 4.859c-1.356 1.333-3.538 1.292-4.862-.065 0 0-9.391-9.638-10.06-10.29-.71-.581-1.852-.92-2.975-.81a4.276 4.276 0 0 0-2.897 1.544C64.573 82.265 64.444 82.39 64.27 82.56c-3.932 3.86-10.28 3.795-14.144-.147 0 0-4.263-4.326-4.336-4.414-1.059-.98-2.947-.916-4.08.28l-7.012 7.393a3.425 3.425 0 0 1-2.493 1.072zm15.017-41.486a4.604 4.604 0 0 0 .005 9.208 4.612 4.612 0 0 0 4.606-4.606c0-2.535-2.067-4.597-4.61-4.602m.004 16.083c-6.33 0-11.477-5.151-11.477-11.481s5.147-11.477 11.477-11.477c6.334.005 11.48 5.157 11.48 11.477 0 6.33-5.15 11.481-11.48 11.481"
                  clip-rule="evenodd"
                />
              </svg>